# xmcd CD database file
# Copyright (C) 1996 Ti Kan
#
# Track frame offsets:
#	150
#	10081
#	23133
#	37595
#	55854
#	71468
#	84434
#	98988
#	108500
#	119841
#	135297
#	143398
# Disc length: 2081 seconds
#
# Revision: 1
# Processed by: cddbd v1.5.2PL0 Copyright (c) Steve Scherf et al.
# Submitted via: CDCOPY 4.900
#
DISCID=8e081f0c
DTITLE=The Magnificent Moodies - The Moody Blues
DYEAR=1900
DGENRE=
TTITLE0=I'll Go Crazy
TTITLE1=Something You Got
TTITLE2=Go Now
TTITLE3=Can't Nobody Love You
TTITLE4=I Don't Mind
TTITLE5=I've Got A Dream
TTITLE6=Let Me Go
TTITLE7=Stop!
TTITLE8=Thank You Baby
TTITLE9=It Ain't Necessarily So
TTITLE10=True Story
TTITLE11=Bye Bye Bird
EXTD=
EXTT0=
EXTT1=
EXTT2=
EXTT3=
EXTT4=
EXTT5=
EXTT6=
EXTT7=
EXTT8=
EXTT9=
EXTT10=
EXTT11=
PLAYORDER=
